# Blender v2.78 (sub 0) OBJ File: 'CajadeOreo.blend'
# www.blender.org
mtllib CajadeOreo.mtl
o Cube
v 1.251961 -1.268833 -0.256802
v 1.251961 -1.268833 0.256802
v -1.251961 -1.268833 0.256802
v -1.251960 -1.268833 -0.256802
v 1.251961 1.268833 -0.256802
v 1.251960 1.268833 0.256802
v -1.251961 1.268833 0.256802
v -1.251961 1.268833 -0.256802
vt 0.9748 0.0001
vt 0.9748 0.9999
vt 0.0001 0.9999
vt 0.0001 0.0001
vt 0.0040 1.0009
vt 0.0097 0.0009
vt 0.9977 -0.0050
vt 1.0034 0.9892
vt 1.0038 0.0004
vt 1.0038 0.9996
vt 0.0096 0.9982
vt 0.0155 0.0004
vt -0.0092 0.0022
vt 0.0001 0.9944
vt 0.9814 0.9944
vt 0.9814 0.0022
vt 0.9996 0.0085
vt 1.0024 0.9690
vt 0.0000 0.9708
vt 0.0043 0.0104
vt 0.9973 0.9793
vt -0.0046 0.9896
vt -0.0070 0.0207
vt 0.9949 0.0000
vn -0.0000 -0.0000 1.0000
vn 0.0000 0.0000 -1.0000
vn 1.0000 0.0000 0.0000
vn -1.0000 -0.0000 -0.0000
vn 0.0000 -1.0000 -0.0000
vn 0.0000 1.0000 -0.0000
usemtl Material
s off
f 2/1/1 6/2/1 7/3/1 3/4/1
f 5/5/2 1/6/2 4/7/2 8/8/2
usemtl Material.001
f 1/9/3 5/10/3 6/11/3 2/12/3
usemtl Material.003
f 3/13/4 7/14/4 8/15/4 4/16/4
usemtl Material.004
f 1/17/5 2/18/5 3/19/5 4/20/5
f 5/21/6 8/22/6 7/23/6 6/24/6
