# Blender v2.78 (sub 0) OBJ File: 'CajaDeCereal.blend'
# www.blender.org
mtllib CajaDeCereal.mtl
o Cube
v 1.269461 -1.000000 -0.641656
v 1.269461 -1.000000 0.054408
v -0.846766 -1.000000 0.054408
v -0.846766 -1.000000 -0.641656
v 1.269461 2.117733 -0.641655
v 1.269460 2.117733 0.054409
v -0.846766 2.117733 0.054408
v -0.846766 2.117733 -0.641656
v 0.404627 1.077351 -0.102900
vt 0.9819 0.0001
vt 0.9819 0.9999
vt 0.0001 0.9999
vt 0.0001 0.0001
vt 0.0001 0.9999
vt 0.0001 0.0001
vt 0.9819 0.0001
vt 0.9819 0.9999
vt 1.0016 0.0066
vt 1.0087 0.9958
vt 0.0001 0.9999
vt 0.0001 0.0001
vt 1.0114 -0.0021
vt 1.0114 0.9977
vt 0.0001 0.9999
vt 0.0001 0.0001
vt 1.0072 0.9913
vt 0.0037 1.0011
vt 0.0001 0.0001
vt 0.9999 0.0001
vt 0.9999 0.0001
vt 1.0035 1.0042
vt 0.0037 1.0042
vn -0.0000 -0.0000 1.0000
vn 0.0000 0.0000 -1.0000
vn 1.0000 -0.0000 0.0000
vn -1.0000 -0.0000 -0.0000
vn 0.0000 1.0000 0.0000
vn 0.0000 -1.0000 0.0000
usemtl Tigre
s off
f 2/1/1 6/2/1 7/3/1 3/4/1
f 5/5/2 1/6/2 4/7/2 8/8/2
usemtl Lado_naranja
f 1/9/3 5/10/3 6/11/3 2/12/3
usemtl Lado_Blanco
f 3/13/4 7/14/4 8/15/4 4/16/4
usemtl Arriba
f 5/17/5 8/18/5 7/19/5 6/20/5
usemtl Abajo
f 1/21/6 2/22/6 3/23/6 4/16/6
