# Blender v2.78 (sub 0) OBJ File: 'cajabizcochos.blend'
# www.blender.org
mtllib cajabizcochos.mtl
o Cube_Cube.001
v -1.848849 -1.000000 1.000000
v -1.848849 1.000000 1.000000
v -1.848849 -1.000000 -1.000000
v -1.848849 1.000000 -1.000000
v 1.848849 -1.000000 1.000000
v 1.848849 1.000000 1.000000
v 1.848849 -1.000000 -1.000000
v 1.848849 1.000000 -1.000000
vt 0.9959 0.0078
vt 1.0007 0.9922
vt 0.0011 0.9922
vt 0.0036 -0.0042
vt 0.9969 0.0061
vt 1.0018 0.9819
vt 0.0001 0.9999
vt 0.0001 0.0001
vt 0.9969 0.9999
vt 0.0001 0.9999
vt 0.0001 0.0001
vt 0.9993 0.0061
vt 0.0001 0.0001
vt 0.7304 0.0001
vt 0.7304 0.9999
vt 0.0001 0.9999
vt 0.9852 0.0001
vt 0.9852 0.9999
vt 0.9852 0.0001
vt 0.9852 0.9999
vt 0.0001 0.9999
vt 0.0001 0.0001
vn 0.0000 0.0000 -1.0000
vn 0.0000 0.0000 1.0000
vn 0.0000 1.0000 0.0000
vn 0.0000 -1.0000 0.0000
vn -1.0000 0.0000 0.0000
vn 1.0000 0.0000 0.0000
usemtl Material.001
s off
f 3/1/1 4/2/1 8/3/1 7/4/1
f 5/5/2 6/6/2 2/7/2 1/8/2
f 8/9/3 4/10/3 2/11/3 6/12/3
usemtl Material.002
f 3/13/4 7/14/4 5/15/4 1/16/4
usemtl Material.003
f 1/16/5 2/11/5 4/17/5 3/18/5
f 7/19/6 8/20/6 6/21/6 5/22/6
